<?xml version="1.0" standalone="no"?>
<!DOCTYPE svg PUBLIC "-//W3C//DTD SVG 20010904//EN"
 "http://www.w3.org/TR/2001/REC-SVG-20010904/DTD/svg10.dtd">
<svg version="1.0" xmlns="http://www.w3.org/2000/svg"
 width="640.000000pt" height="640.000000pt" viewBox="0 0 640.000000 640.000000"
 preserveAspectRatio="xMidYMid meet">
<metadata>
Created by potrace 1.11, written by Peter Selinger 2001-2013
</metadata>
<g transform="translate(0.000000,640.000000) scale(0.100000,-0.100000)"
fill="#000000" stroke="none">
<path d="M2355 6356 c-71 -24 -170 -63 -219 -87 l-89 -42 -144 7 c-162 8 -295
-3 -478 -40 -231 -45 -415 -109 -518 -179 -48 -33 -135 -104 -112 -93 15 8
105 49 153 69 54 24 142 46 252 66 47 8 108 19 135 24 97 18 258 22 394 9 75
-7 142 -16 150 -20 10 -5 -1 -17 -40 -44 -29 -20 -57 -36 -61 -36 -3 0 -33
-17 -65 -39 -76 -50 -233 -125 -330 -158 -88 -29 -225 -42 -318 -30 -84 10
-235 64 -337 120 l-88 48 -19 62 c-11 34 -20 52 -20 39 -2 -76 87 -248 181
-348 49 -52 59 -67 47 -75 -11 -7 -10 -9 6 -9 11 0 40 -14 65 -30 25 -16 51
-30 58 -30 7 0 23 -5 35 -12 l22 -11 -25 -7 c-36 -10 -186 6 -285 29 -100 24
-244 93 -324 154 -30 23 -75 68 -99 100 -25 31 -47 57 -50 57 -16 0 11 -117
41 -178 102 -206 252 -346 446 -417 l35 -13 -40 -19 c-21 -11 -79 -33 -129
-48 -199 -62 -357 -148 -468 -253 -54 -52 -115 -137 -105 -147 2 -2 28 18 58
46 99 90 195 147 320 187 70 23 211 54 217 48 2 -2 -30 -25 -72 -51 -182 -113
-360 -267 -440 -380 -40 -57 -98 -166 -91 -172 2 -2 16 10 32 25 101 102 267
187 464 238 99 25 490 39 510 17 4 -4 1 -30 -7 -57 -12 -42 -34 -69 -151 -186
-204 -204 -316 -267 -497 -279 -55 -4 -93 -10 -85 -13 53 -22 95 -28 189 -28
118 0 186 14 295 61 39 17 93 40 120 51 l50 19 -55 -63 c-71 -81 -112 -142
-149 -220 -49 -102 -37 -115 38 -42 82 80 202 167 202 146 0 -11 -92 -139
-156 -219 -60 -74 -171 -170 -231 -198 -78 -37 -219 -28 -378 25 -58 19 -69
28 -107 80 -24 31 -53 75 -65 96 -17 31 -22 34 -23 18 0 -38 93 -167 166 -228
135 -112 233 -152 397 -162 l104 -7 79 37 c135 64 222 124 332 230 65 63 72
63 47 2 -46 -110 -78 -167 -122 -216 -27 -30 -74 -94 -105 -142 -31 -47 -61
-88 -65 -91 -9 -5 -180 16 -228 28 -62 16 -15 -6 84 -39 56 -18 104 -36 107
-38 2 -3 -7 -40 -21 -83 -13 -42 -23 -81 -20 -85 5 -9 66 1 223 34 64 14 142
28 172 31 60 7 291 42 329 51 l24 5 -18 -28 c-10 -15 -45 -61 -77 -102 -56
-71 -57 -74 -43 -102 26 -49 20 -58 -57 -94 -108 -49 -171 -59 -359 -58 -177
0 -242 12 -237 41 2 13 -5 17 -29 17 -39 1 -136 81 -170 141 -38 67 -25 11 17
-72 65 -129 148 -197 303 -249 159 -54 394 -43 545 26 36 16 67 28 68 26 6 -6
-94 -154 -132 -197 -85 -94 -240 -190 -306 -190 -22 0 -38 -5 -38 -11 0 -19
151 -4 250 24 176 50 306 120 381 206 44 50 53 47 65 -18 18 -92 -98 -179
-240 -182 l-51 -1 45 -21 c36 -17 64 -22 137 -22 60 0 96 4 105 13 9 9 9 12
-2 12 -8 0 6 13 31 28 99 64 162 159 199 300 l17 65 31 -45 c34 -50 88 -100
130 -122 33 -17 102 -31 102 -21 0 4 -17 27 -39 50 -74 80 -141 252 -141 361
0 39 -6 59 -25 85 -39 53 -65 111 -65 146 0 27 7 37 38 57 42 26 222 202 222
217 0 5 4 9 8 9 5 0 12 -48 16 -107 18 -310 172 -643 355 -771 33 -23 62 -42
65 -42 3 0 -14 19 -37 42 -108 108 -212 364 -232 569 l-6 64 32 -75 c71 -165
225 -347 345 -408 119 -60 262 -79 301 -39 15 15 15 16 -4 11 -27 -7 -90 26
-130 68 -38 39 -94 157 -118 248 -21 81 -33 377 -17 406 11 18 11 18 12 -1 0
-28 64 -204 99 -272 26 -52 89 -129 97 -120 2 2 -13 41 -33 86 -50 118 -76
271 -70 421 5 109 20 190 35 190 4 0 12 -10 18 -23 6 -12 46 -91 88 -176 107
-213 148 -337 154 -468 5 -111 -7 -176 -40 -218 l-19 -24 44 15 c25 8 54 25
65 37 54 58 110 234 97 304 -3 18 -4 33 -1 33 2 0 28 -11 58 -25 38 -18 69
-25 108 -24 54 1 55 1 17 10 -63 15 -95 37 -153 107 -65 79 -150 244 -165 322
-6 30 -15 73 -20 95 -13 62 -23 283 -15 355 9 83 23 101 80 107 44 5 45 5 62
-33 16 -37 18 -37 22 -14 7 41 21 50 78 50 l53 0 -25 -44 c-41 -73 -47 -106
-27 -143 16 -30 43 -45 43 -24 0 34 114 -3 173 -58 52 -47 96 -153 75 -179
-10 -11 -8 -18 12 -34 l24 -20 28 31 c15 16 34 54 42 82 20 65 20 191 1 244
-8 21 -12 41 -10 43 6 7 196 -98 262 -145 76 -54 116 -102 143 -176 l21 -57
-25 -33 c-14 -19 -68 -72 -120 -120 -112 -101 -187 -182 -227 -245 -40 -64
-36 -71 14 -25 74 69 320 214 335 198 3 -2 -20 -31 -50 -63 -114 -124 -208
-280 -233 -386 -26 -110 -18 -118 38 -42 27 36 82 97 124 135 l76 70 71 -5
c58 -5 89 -2 168 19 96 26 146 51 221 110 44 34 55 31 34 -10 -8 -15 -29 -73
-47 -128 -36 -114 -48 -224 -30 -270 l13 -30 13 62 c15 72 57 160 106 221 33
41 186 182 199 182 3 0 -3 -26 -14 -57 -13 -41 -17 -71 -13 -103 7 -48 26 -80
26 -42 0 32 13 27 54 -19 26 -28 35 -46 31 -59 -4 -13 1 -22 15 -30 27 -15 45
-1 61 48 12 36 19 213 9 242 -13 39 146 -12 175 -56 22 -33 19 -66 -10 -108
-13 -20 -22 -36 -19 -36 2 0 36 16 74 35 72 36 76 37 61 7 -5 -9 -15 -30 -22
-47 -8 -16 -21 -41 -30 -55 -9 -14 -36 -58 -60 -98 -24 -41 -54 -90 -66 -110
-32 -52 -28 -64 7 -22 l29 35 -13 -44 c-14 -48 -72 -125 -87 -116 -5 4 -14 -5
-20 -19 -17 -36 -124 -125 -186 -153 -28 -13 -72 -25 -97 -26 -50 -2 -59 -11
-23 -21 69 -18 225 5 282 43 109 72 201 170 271 286 33 54 107 206 118 243 9
29 26 29 26 0 0 -38 -47 -232 -74 -306 -13 -38 -47 -120 -75 -182 -28 -63 -50
-118 -49 -122 2 -5 27 27 56 70 154 229 301 715 358 1187 15 132 34 507 27
536 -3 9 2 45 11 80 37 152 55 403 39 554 -7 67 -9 46 -9 -120 0 -243 -19
-374 -71 -507 -21 -53 -31 -47 -25 13 8 88 -31 390 -74 559 -49 195 -118 380
-211 565 -121 239 -272 435 -422 545 -19 14 -46 34 -60 46 -44 36 -171 118
-291 189 -128 75 -136 80 -100 71 l25 -7 -24 20 c-13 12 -67 36 -120 53 l-96
33 -880 2 -880 3 -130 -44z m1000 -776 c0 -9 -11 -16 -27 -18 -30 -4 -36 6
-16 26 16 16 43 11 43 -8z m823 -309 c-25 -16 -56 -35 -69 -41 l-24 -13 20 23
c22 25 82 59 104 60 8 0 -6 -13 -31 -29z m612 -175 c0 -17 -34 -31 -50 -21
-16 10 8 35 31 35 11 0 19 -6 19 -14z m41 -184 c-95 -189 -309 -446 -521 -627
-80 -68 -175 -135 -191 -135 -4 0 -22 12 -41 27 l-33 27 29 -32 c29 -31 29
-32 10 -46 -42 -32 -59 -28 -186 44 -68 39 -165 87 -215 107 -51 20 -93 40
-93 43 0 11 116 34 134 27 10 -4 13 -1 9 9 -3 8 1 14 8 14 20 0 178 51 299 97
126 48 290 126 383 183 57 34 70 39 88 29 18 -9 20 -9 11 6 -8 15 7 30 87 90
53 40 130 102 171 138 41 35 76 63 78 62 2 -2 -10 -30 -27 -63z m-461 -858
c-88 -132 -165 -240 -170 -242 -6 -2 -10 3 -10 11 0 8 -12 50 -26 93 -21 66
-33 86 -75 125 l-50 46 46 13 c43 12 47 12 72 -11 25 -23 25 -23 12 -2 -17 29
-13 32 91 73 87 34 243 121 256 142 5 8 9 8 11 1 2 -6 -69 -118 -157 -249z
m151 164 c-33 -85 -72 -158 -147 -270 -75 -112 -136 -180 -149 -166 -3 2 10
27 28 54 19 27 87 129 152 227 65 97 120 177 122 177 1 0 -1 -10 -6 -22z m640
-397 c-51 -64 -181 -181 -302 -273 -140 -105 -154 -118 -207 -191 -65 -87 -66
-74 -3 43 19 36 42 77 53 92 10 14 18 32 18 40 0 42 41 77 177 148 76 39 172
96 213 125 41 30 77 54 78 54 2 1 -10 -17 -27 -38z m287 -111 c1 -80 -2 -168
-9 -198 -13 -64 -96 -232 -114 -232 -7 0 -22 19 -33 43 -42 89 -124 136 -267
153 l-58 7 27 24 c15 12 35 23 45 23 23 0 103 -35 156 -68 27 -17 35 -20 26
-8 -8 10 -48 34 -88 55 l-74 37 48 34 c92 66 250 200 282 240 18 23 38 39 44
37 8 -2 13 -49 15 -147z m-758 -128 c0 -27 -174 -158 -282 -213 -84 -43 -188
-71 -188 -51 0 6 145 95 370 226 75 44 100 53 100 38z"/>
<path d="M4980 6396 c0 -2 29 -25 65 -51 36 -25 95 -71 131 -102 36 -30 67
-53 70 -50 3 2 -9 26 -25 53 -17 26 -31 57 -31 68 0 27 -8 37 -47 64 -24 17
-45 22 -97 22 -36 0 -66 -2 -66 -4z"/>
<path d="M5877 5623 c-60 -82 -142 -152 -187 -159 -25 -4 -49 -18 -70 -39 -27
-28 -29 -33 -15 -45 8 -7 15 -10 15 -6 0 4 11 -1 25 -10 13 -8 28 -13 34 -10
5 3 32 -5 60 -19 124 -63 310 -88 450 -61 47 8 88 19 92 23 4 5 -43 9 -104 9
-131 2 -437 60 -437 83 0 4 26 20 58 34 32 15 73 42 91 61 31 32 32 35 29 112
l-3 79 -38 -52z"/>
<path d="M5640 5315 c0 -5 5 -17 10 -25 5 -8 10 -10 10 -5 0 6 -5 17 -10 25
-5 8 -10 11 -10 5z"/>
<path d="M5666 5240 c4 -19 10 -42 15 -50 11 -18 1 34 -13 65 -5 13 -6 9 -2
-15z"/>
<path d="M5691 5124 c0 -11 3 -14 6 -6 3 7 2 16 -1 19 -3 4 -6 -2 -5 -13z"/>
<path d="M5701 5074 c0 -11 3 -14 6 -6 3 7 2 16 -1 19 -3 4 -6 -2 -5 -13z"/>
<path d="M6380 4100 c0 -38 -7 -89 -15 -113 -12 -35 -13 -56 -5 -97 16 -83 13
-298 -5 -358 -25 -84 -71 -163 -137 -236 -57 -64 -181 -156 -228 -171 -33 -11
-22 -22 26 -30 39 -6 49 -3 70 16 13 12 32 27 43 33 93 52 136 84 199 146 l72
73 0 403 c0 263 -3 404 -10 404 -6 0 -10 -30 -10 -70z"/>
<path d="M5694 3324 c-3 -10 -16 -44 -29 -74 -31 -74 -38 -100 -28 -100 24 0
77 -144 72 -195 -1 -11 -1 -29 0 -40 1 -16 3 -17 11 -5 7 12 10 11 16 -5 19
-55 85 -187 90 -182 4 3 -3 41 -14 84 -24 92 -46 208 -73 388 -19 129 -32 167
-45 129z"/>
<path d="M4864 3124 c3 -8 6 -18 6 -20 0 -2 5 -4 10 -4 16 0 11 27 -6 34 -12
5 -15 2 -10 -10z"/>
<path d="M3580 2778 c0 -14 56 -102 75 -118 11 -9 12 -7 8 11 -5 19 -3 21 13
16 18 -7 18 -7 0 8 -20 15 -20 15 1 15 11 0 46 -9 78 -20 32 -11 61 -20 64
-20 5 0 -229 119 -236 120 -2 0 -3 -5 -3 -12z"/>
<path d="M4360 2385 c0 -7 -8 -18 -17 -24 -27 -15 -13 -19 45 -14 l52 6 -32
23 c-37 28 -48 30 -48 9z"/>
<path d="M5047 2133 c-4 -3 -7 -13 -7 -22 1 -13 3 -13 11 2 11 19 8 33 -4 20z"/>
<path d="M5285 2123 c-52 -19 -205 -119 -205 -134 0 -5 -9 -9 -20 -9 -11 0
-34 -13 -52 -30 -20 -19 -41 -30 -60 -30 -46 0 -179 -37 -251 -69 l-66 -30
-47 56 c-36 42 -66 64 -119 89 -74 35 -221 81 -270 84 -63 4 -63 4 -91 -87
-54 -183 -75 -248 -90 -279 -11 -23 -51 -56 -142 -117 -70 -46 -138 -90 -153
-98 -84 -46 -435 -289 -534 -369 -38 -31 -83 -65 -98 -75 -16 -10 -49 -46 -75
-79 l-47 -61 2 -265 c2 -146 4 -287 5 -315 l3 -49 -99 -57 c-55 -31 -105 -64
-112 -75 -7 -10 -15 -43 -19 -71 -6 -43 -4 -53 8 -53 10 0 16 16 20 53 7 60
21 74 126 132 121 66 114 53 100 185 -14 138 -6 488 12 522 41 79 196 213 409
355 175 117 292 194 434 287 75 49 147 102 161 118 15 17 42 83 66 161 42 131
73 197 96 197 27 0 154 -31 209 -51 70 -26 148 -75 187 -116 l28 -30 -53 -40
c-29 -22 -75 -52 -103 -68 -67 -37 -205 -126 -205 -132 0 -3 10 1 23 9 112 73
326 198 386 226 96 44 220 81 299 89 55 5 65 9 73 30 5 15 20 26 40 30 17 3
33 12 36 19 5 15 148 109 189 124 47 18 258 13 372 -9 97 -19 105 -23 184 -82
147 -111 293 -261 337 -347 20 -39 40 -52 106 -71 29 -8 49 -24 75 -58 25 -33
36 -42 38 -30 2 9 -13 37 -33 61 -26 32 -46 46 -72 51 -52 9 -68 24 -111 94
-62 103 -284 311 -389 365 -108 55 -410 84 -508 49z"/>
<path d="M410 1914 c-22 -12 -23 -13 -5 -13 24 -1 50 14 38 22 -4 3 -19 -1
-33 -9z"/>
<path d="M258 1863 c6 -2 18 -2 25 0 6 3 1 5 -13 5 -14 0 -19 -2 -12 -5z"/>
<path d="M6095 1631 c22 -10 51 -21 65 -24 14 -4 7 2 -15 12 -22 10 -51 22
-65 25 -14 3 -7 -2 15 -13z"/>
<path d="M2275 1489 c-126 -42 -289 -124 -336 -169 -38 -36 -39 -38 -39 -109
0 -67 -2 -72 -25 -83 -14 -6 -25 -15 -25 -20 0 -12 -129 -10 -210 3 -37 7 -84
9 -102 5 -35 -6 -142 -70 -226 -132 l-42 -32 37 1 c21 0 30 2 20 5 -27 6 164
129 213 137 22 4 44 4 49 1 5 -3 62 -10 126 -16 98 -8 122 -7 146 6 16 8 29
11 29 7 0 -28 -29 -104 -77 -210 -55 -118 -58 -121 -93 -127 -44 -7 -98 -61
-214 -214 -164 -218 -265 -415 -266 -519 0 -46 17 -21 29 42 24 118 121 292
278 497 96 126 153 178 193 178 24 0 33 6 41 27 5 15 32 72 59 128 52 106 80
211 80 299 0 100 8 111 139 175 107 53 284 121 314 121 7 0 22 7 33 15 18 14
18 14 -11 14 -16 1 -70 -13 -120 -30z"/>
<path d="M2460 1423 c0 -7 -8 -12 -17 -12 -56 0 -204 -50 -241 -82 -9 -8 -33
-24 -52 -36 -20 -12 -47 -34 -60 -49 l-25 -27 34 19 c19 10 44 29 56 41 60 58
275 136 302 110 3 -4 12 -32 19 -64 l13 -58 -4 75 c-3 41 -10 79 -15 84 -7 7
-10 6 -10 -1z"/>
<path d="M3974 1404 c-18 -14 -18 -15 4 -4 12 6 22 13 22 15 0 8 -5 6 -26 -11z"/>
<path d="M3906 1360 c-22 -17 -35 -30 -30 -30 9 1 83 59 74 59 -3 0 -23 -13
-44 -29z"/>
<path d="M3819 1288 c-19 -18 -46 -49 -61 -68 -25 -34 -168 -304 -168 -318 0
-14 29 37 96 167 46 89 87 154 123 192 58 65 63 77 10 27z"/>
<path d="M2142 1110 c0 -14 2 -19 5 -12 2 6 2 18 0 25 -3 6 -5 1 -5 -13z"/>
<path d="M2152 1060 c0 -14 2 -19 5 -12 2 6 2 18 0 25 -3 6 -5 1 -5 -13z"/>
<path d="M2162 984 c-1 -23 -4 -57 -7 -75 -5 -31 -5 -32 5 -9 6 13 9 47 7 75
-3 46 -3 47 -5 9z"/>
<path d="M1163 943 c9 -2 23 -2 30 0 6 3 -1 5 -18 5 -16 0 -22 -2 -12 -5z"/>
<path d="M2141 863 c-1 -6 -4 -20 -7 -30 -5 -17 -5 -17 6 0 6 10 9 23 6 30 -3
9 -5 9 -5 0z"/>
<path d="M3060 867 c0 -3 7 -18 15 -33 8 -16 15 -39 15 -51 0 -11 11 -63 24
-115 14 -51 30 -121 37 -156 8 -41 15 -60 22 -53 15 15 -80 392 -103 406 -6 3
-10 4 -10 2z"/>
<path d="M4541 786 c0 -10 8 -51 19 -90 85 -300 127 -487 136 -610 9 -121 17
-107 11 19 -6 117 -30 227 -111 505 -24 85 -47 164 -49 175 -4 18 -5 18 -6 1z"/>
<path d="M2092 754 c-6 -12 -41 -59 -78 -105 -81 -103 -134 -207 -134 -266 0
-35 -3 -42 -22 -45 -18 -3 -12 -7 22 -17 103 -30 429 -220 513 -299 15 -14 27
-22 27 -18 0 27 -204 167 -366 252 -60 31 -119 66 -131 77 -32 29 -30 87 5
162 36 75 146 213 181 226 15 6 21 13 15 17 -6 4 -13 14 -16 22 -4 12 -7 10
-16 -6z"/>
<path d="M3022 665 c0 -16 2 -22 5 -12 2 9 2 23 0 30 -3 6 -5 -1 -5 -18z"/>
<path d="M917 533 c-41 -49 -101 -115 -133 -148 -55 -57 -66 -63 -159 -93 -55
-18 -129 -36 -165 -41 -55 -7 -68 -13 -93 -42 -25 -30 -107 -185 -107 -202 0
-4 6 -7 13 -7 6 0 27 33 45 74 19 41 49 93 69 115 30 36 40 41 76 41 93 0 279
71 328 125 13 15 42 46 64 69 22 22 58 63 80 91 22 27 48 59 58 69 9 11 17 23
17 28 0 21 -23 1 -93 -79z"/>
<path d="M3218 468 c-89 -111 -168 -233 -219 -343 -45 -98 -54 -125 -40 -125
6 0 11 5 11 10 0 6 26 65 58 133 59 123 107 198 214 340 32 42 57 77 54 77 -2
0 -37 -42 -78 -92z"/>
<path d="M10 290 c-8 -5 -11 -10 -5 -10 6 0 17 5 25 10 8 5 11 10 5 10 -5 0
-17 -5 -25 -10z"/>
<path d="M1615 133 c-47 -25 -169 -127 -156 -131 6 -2 46 25 88 59 117 94 126
103 68 72z"/>
<path d="M2914 108 c-86 -93 -98 -108 -83 -107 8 0 37 28 64 61 78 95 88 119
19 46z"/>
<path d="M1875 110 c17 -10 44 -40 60 -64 27 -41 34 -46 69 -46 33 0 37 2 26
15 -14 17 -165 115 -177 115 -4 0 6 -9 22 -20z"/>
</g>
</svg>
